<?xml version="1.0" encoding="UTF-8" standalone="no"?>
<svg
   xmlns:dc="http://purl.org/dc/elements/1.1/"
   xmlns:cc="http://creativecommons.org/ns#"
   xmlns:rdf="http://www.w3.org/1999/02/22-rdf-syntax-ns#"
   xmlns:svg="http://www.w3.org/2000/svg"
   xmlns="http://www.w3.org/2000/svg"
   xmlns:sodipodi="http://sodipodi.sourceforge.net/DTD/sodipodi-0.dtd"
   xmlns:inkscape="http://www.inkscape.org/namespaces/inkscape"
   enable-background="new -1.147 -22.185 141.732 141.732"
   height="141.732px"
   id="Livello_1"
   version="1.1"
   viewBox="-1.147 -22.185 141.732 141.732"
   width="141.732px"
   xml:space="preserve"
   inkscape:version="0.48.5 r10040"
   sodipodi:docname="1415566416_52.svg"><metadata
     id="metadata3043"><rdf:RDF><cc:Work
         rdf:about=""><dc:format>image/svg+xml</dc:format><dc:type
           rdf:resource="http://purl.org/dc/dcmitype/StillImage" /><dc:title></dc:title></cc:Work></rdf:RDF></metadata><defs
     id="defs3041" /><sodipodi:namedview
     pagecolor="#ffffff"
     bordercolor="#666666"
     borderopacity="1"
     objecttolerance="10"
     gridtolerance="10"
     guidetolerance="10"
     inkscape:pageopacity="0"
     inkscape:pageshadow="2"
     inkscape:window-width="826"
     inkscape:window-height="610"
     id="namedview3039"
     showgrid="false"
     inkscape:zoom="1.1774138"
     inkscape:cx="209.87128"
     inkscape:cy="78.881362"
     inkscape:window-x="286"
     inkscape:window-y="254"
     inkscape:window-maximized="0"
     inkscape:current-layer="Livello_1" /><rect
     style="fill:#2979ff;fill-opacity:1;stroke:none"
     id="rect3841"
     width="150"
     height="150"
     x="-2.6838844"
     y="-23.13633"
     inkscape:export-filename="/home/dema/work/aweather/images/512x512.png"
     inkscape:export-xdpi="307.20001"
     inkscape:export-ydpi="307.20001" /><path
     mask="none"
     inkscape:connector-curvature="0"
     style="fill:#ffffff"
     id="path3036"
     d="m 52.248676,39.298784 c -4.85077,-3.860777 -10.87114,-6.150181 -17.3966,-6.150181 -16.09078,0.002 -29.1361503,13.921118 -29.1361503,31.089675 0,17.118176 12.9675203,30.999796 28.9934203,31.082756 v 0.004 H 121.9769 v -0.007 c 6.29378,-0.1521 11.354,-5.69981 11.354,-12.52062 0,-6.918572 -5.20202,-12.529489 -11.61999,-12.529489 -0.25208,0 -0.5088,0.01481 -0.75903,0.02864 -2.42353,-7.229698 -8.9008,-12.404068 -16.51153,-12.404068 -2.13252,0 -4.17608,0.404943 -6.065784,1.149641 -2.31788,-14.696435 -14.29374,-25.89654 -28.72743,-25.89654 -6.52268,0.0049 -12.54305,2.292367 -17.39846,6.153144 m 70.479844,27.395814 c 2.329,0 4.49211,0.737784 6.30953,2.005945 0.92493,-1.707671 0.36701,-3.88942 -1.25487,-4.876096 l -8.835,-5.373878 c -0.89527,-0.544202 -1.92307,-0.6084 -2.82946,-0.273582 2.64966,2.168909 4.70526,5.125974 5.85355,8.545265 0.24837,-0.0158 0.50046,-0.02765 0.75625,-0.02765 m -56.863574,-40.4438 -8.835,-5.374866 c -1.62743,-0.989639 -3.7062,-0.400991 -4.64688,1.311618 -0.94161,1.711621 -0.38184,3.905222 1.24652,4.894861 l 7.13436,4.340781 c 2.15198,-0.830625 4.42167,-1.396556 6.77662,-1.665201 0.15014,-1.374827 -0.46617,-2.773359 -1.67562,-3.507193 m 12.48374,-10.59763 -5.10193,-9.3097172 c -0.93976,-1.71261 -3.01945,-2.301257 -4.64503,-1.311618 -1.62742,0.989639 -2.18442,3.182253 -1.24559,4.894861 l 5.101,9.3097172 c 0.93976,1.713596 3.01945,2.300268 4.64503,1.311617 1.62743,-0.989639 2.18627,-3.180276 1.24652,-4.89486 m 0.45505,7.998099 c -2.6163,1.590139 -4.83131,3.632627 -6.62278,5.967464 13.74694,0.757538 24.97026,11.674184 27.20473,25.855058 1.890634,-0.74371 3.934184,-1.150628 6.066704,-1.150628 2.44578,0 4.77293,0.536301 6.88784,1.502237 3.10008,-7.133895 2.9898,-15.682124 -1.01946,-22.989847 -6.57273,-12.0011 -21.131534,-16.111755 -32.517034,-9.184284 M 94.818506,13.495085 V 2.7453528 c 0,-1.97927797 -1.52178,-3.58324297 -3.39943,-3.58324297 -1.87859,0 -3.40128,1.603965 -3.40128,3.58324297 V 13.49706 c 0,1.978291 1.52269,3.583244 3.40128,3.583244 1.87765,-0.002 3.39943,-1.606929 3.39943,-3.585219 M 114.457,10.648639 c 0.94161,-1.7106342 0.38183,-3.9022592 -1.24467,-4.8918992 -1.62743,-0.991615 -3.7062,-0.401979 -4.64688,1.308655 l -5.101,9.3116932 c -0.94161,1.711621 -0.38183,3.903245 1.24559,4.89486 1.62558,0.989639 3.70527,0.399016 4.64596,-1.311618 l 5.101,-9.311691 z m 14.59588,11.455909 c -0.2354,-0.432597 -0.54309,-0.789143 -0.89805,-1.06964 -1.05746,-0.84544 -2.53568,-0.993589 -3.7581,-0.249879 l -8.83686,5.371903 c -1.62558,0.989639 -2.18257,3.18324 -1.24374,4.894861 0.2354,0.432596 0.54309,0.789143 0.89805,1.069639 1.05838,0.845441 2.53567,0.994578 3.75902,0.250867 l 8.83409,-5.37289 c 1.62743,-0.989639 2.18535,-3.181265 1.24559,-4.894861 m 5.89155,23.250589 c 0,-1.979277 -1.52548,-3.583243 -3.39943,-3.583243 h -10.20387 c -1.87673,0 -3.40314,1.603966 -3.40314,3.583243 0,1.979278 1.52548,3.583244 3.40314,3.583244 H 131.545 c 1.87766,-9.88e-4 3.39943,-1.604953 3.39943,-3.583244"
     inkscape:export-filename="/home/dema/work/aweather/images/512x512.png"
     inkscape:export-xdpi="307.20001"
     inkscape:export-ydpi="307.20001" /><g
     id="Livello_1_1_" /><path
     style="fill:#ffffff;fill-opacity:1;stroke:none"
     d="m 73.504196,19.887537 c -0.58375,-0.525517 -2.2174,-3.057548 -3.63034,-5.626739 -2.98753,-5.4323173 -3.28964,-7.2323177 -1.45595,-8.6746987 2.46817,-1.9414628 3.95038,-0.7433334 7.60659,6.1487047 2.63078,4.95909 2.77623,5.376977 2.33594,6.711076 -0.44589,1.351051 -1.84301,2.397141 -3.20155,2.397141 -0.32633,0 -1.07094,-0.429968 -1.65469,-0.955484 z"
     id="path3849"
     inkscape:connector-curvature="0"
     inkscape:export-filename="/home/dema/work/aweather/images/512x512.png"
     inkscape:export-xdpi="307.20001"
     inkscape:export-ydpi="307.20001" /><path
     style="fill:#ffeb3b;fill-opacity:1;stroke:none"
     d="m 73.085186,19.554937 c -0.59612,-0.708447 -2.14188,-3.260568 -3.43502,-5.671384 -2.74546,-5.1183508 -3.00992,-6.8991456 -1.23226,-8.2974537 2.55007,-2.0058894 3.9511,-0.8460811 7.7987,6.4559887 2.82867,5.368316 2.96586,6.284455 1.18899,7.93986 -1.3627,1.269549 -3.03164,1.104597 -4.32041,-0.427011 l 0,0 z"
     id="path3851"
     inkscape:connector-curvature="0"
     inkscape:export-filename="/home/dema/work/aweather/images/512x512.png"
     inkscape:export-xdpi="307.20001"
     inkscape:export-ydpi="307.20001" /><path
     style="fill:#ffeb3b;fill-opacity:1;stroke:none"
     d="m 90.361526,16.588393 c -2.03943,-0.812814 -2.32703,-1.983768 -2.17907,-8.8720078 0.12698,-5.9117457 0.20645,-6.455678 1.06907,-7.31719397 1.25916,-1.257553 3.409,-1.2399187 4.44253,0.036441 0.68713,0.84857237 0.78314,1.78859897 0.78314,7.66760307 0,5.7708707 -0.1031,6.8196997 -0.74315,7.5599247 -0.92528,1.070088 -2.15949,1.408687 -3.37252,0.925233 z"
     id="path3853"
     inkscape:connector-curvature="0"
     inkscape:export-filename="/home/dema/work/aweather/images/512x512.png"
     inkscape:export-xdpi="307.20001"
     inkscape:export-ydpi="307.20001" /><path
     style="fill:#ffeb3b;fill-opacity:1;stroke:none"
     d="m 110.40194,54.971603 c -1.76628,-0.658886 -8.59193,-0.648414 -10.05975,0.01543 -0.583984,0.26412 -0.802984,-0.0175 -1.178864,-1.515909 -3.10014,-12.358776 -12.96698,-22.101511 -23.84435,-23.544445 -1.1516,-0.152765 -2.18086,-0.418595 -2.28725,-0.590734 -0.43517,-0.704125 4.95452,-5.17086 7.94345,-6.583174 13.12772,-6.20304 28.069414,1.033279 32.445784,15.713621 1.1258,3.776435 1.04426,10.160125 -0.18036,14.11993 -0.52368,1.69333 -0.99442,3.065317 -1.04608,3.04886 -0.0517,-0.01646 -0.85833,-0.315068 -1.79258,-0.663579 z"
     id="path3855"
     inkscape:connector-curvature="0"
     inkscape:export-filename="/home/dema/work/aweather/images/512x512.png"
     inkscape:export-xdpi="307.20001"
     inkscape:export-ydpi="307.20001" /><path
     style="fill:#ffeb3b;fill-opacity:1;stroke:none"
     d="m 56.771566,28.857298 c -1.9363,-1.183114 -3.81638,-2.602626 -4.17796,-3.154471 -1.30328,-1.989049 0.33853,-5.009558 2.71423,-4.993506 1.31417,0.0089 9.55835,4.763642 11.03567,6.364736 1.69773,1.839978 1.30312,2.433073 -2.154,3.237371 -1.71022,0.397882 -3.28677,0.717474 -3.50345,0.710204 -0.21667,-0.0073 -1.9782,-0.98122 -3.91449,-2.164334 l 0,0 z"
     id="path3857"
     inkscape:connector-curvature="0"
     inkscape:export-filename="/home/dema/work/aweather/images/512x512.png"
     inkscape:export-xdpi="307.20001"
     inkscape:export-ydpi="307.20001" /><path
     style="fill:#ffeb3b;fill-opacity:1;stroke:none"
     d="m 105.22762,21.264716 c -1.13837,-0.458659 -1.83257,-1.683052 -1.83257,-3.232203 0,-1.222507 4.57753,-10.0620243 6.00287,-11.591949 1.49764,-1.607531 4.11185,-0.9985914 5.00875,1.1667115 0.62222,1.5021869 0.26634,2.4679225 -3.15739,8.5680115 -2.91432,5.192459 -3.83488,5.970505 -6.02166,5.089429 z"
     id="path3859"
     inkscape:connector-curvature="0"
     inkscape:export-filename="/home/dema/work/aweather/images/512x512.png"
     inkscape:export-xdpi="307.20001"
     inkscape:export-ydpi="307.20001" /><path
     style="fill:#ffeb3b;fill-opacity:1;stroke:none"
     d="m 115.05389,31.691142 c -1.19953,-1.199526 -1.35819,-2.989007 -0.38784,-4.374367 0.87207,-1.245053 10.36906,-6.898414 11.58854,-6.898414 1.38465,0 3.0447,1.828841 3.0447,3.354293 0,0.716844 -0.416,1.734921 -0.95549,2.338372 -1.36524,1.527108 -9.99889,6.622462 -11.22122,6.622462 -0.56449,0 -1.4954,-0.469056 -2.06869,-1.042346 z"
     id="path3861"
     inkscape:connector-curvature="0"
     inkscape:export-filename="/home/dema/work/aweather/images/512x512.png"
     inkscape:export-xdpi="307.20001"
     inkscape:export-ydpi="307.20001" /><path
     style="fill:#ffeb3b;fill-opacity:1;stroke:none"
     d="m 120.0907,48.442927 c -1.99262,-0.802845 -2.4782,-3.913694 -0.84971,-5.443586 0.91912,-0.86347 1.39674,-0.923343 7.36573,-0.923343 5.54721,0 6.4683,0.0973 7.03544,0.743154 1.61947,1.844242 1.22465,4.657381 -0.78195,5.571653 -1.2418,0.565803 -11.39175,0.607233 -12.76951,0.05212 l 0,0 z"
     id="path3863"
     inkscape:connector-curvature="0"
     inkscape:export-filename="/home/dema/work/aweather/images/512x512.png"
     inkscape:export-xdpi="307.20001"
     inkscape:export-ydpi="307.20001" /><path
     style="fill:#ffeb3b;fill-opacity:1;stroke:none"
     d="m 126.96366,67.507443 c -0.93425,-0.428405 -2.37544,-0.78393 -3.20265,-0.790054 -1.39828,-0.01035 -1.58486,-0.175997 -2.65421,-2.356344 -0.6326,-1.289864 -1.93888,-3.200832 -2.90283,-4.246595 -2.51343,-2.726751 -1.16269,-2.513205 4.3235,0.683523 4.89474,2.852107 6.77182,4.54358 6.77182,6.102247 0,1.413963 -0.3678,1.509583 -2.33563,0.607223 l 0,0 z"
     id="path3865"
     inkscape:connector-curvature="0"
     inkscape:export-filename="/home/dema/work/aweather/images/512x512.png"
     inkscape:export-xdpi="307.20001"
     inkscape:export-ydpi="307.20001" /></svg>